<svg width="512" height="512" viewBox="0 0 512 512" fill="none" xmlns="http://www.w3.org/2000/svg">
<g clip-path="url(#clip0_107:15)">
<path d="M510.6 150.529C509.4 123.325 505.001 104.622 498.699 88.4157C492.198 71.2131 482.196 55.8117 469.092 43.0084C456.288 30.0059 440.785 19.9023 423.782 13.5026C407.482 7.20063 388.877 2.80133 361.672 1.60187C334.265 0.30084 325.564 0 256.05 0C186.536 0 177.836 0.30084 150.529 1.50029C123.325 2.69975 104.622 7.10295 88.4196 13.4011C71.2131 19.9023 55.8117 29.9043 43.0084 43.0084C30.0059 55.8117 19.9062 71.3147 13.5026 88.318C7.20063 104.622 2.80133 123.223 1.60187 150.428C0.30084 177.836 0 186.536 0 256.05C0 325.564 0.30084 334.265 1.50029 361.571C2.69975 388.775 7.10295 407.478 13.405 423.684C19.9062 440.887 30.0059 456.288 43.0084 469.092C55.8117 482.094 71.3147 492.198 88.318 498.597C104.622 504.899 123.223 509.299 150.432 510.498C177.734 511.702 186.439 511.998 255.952 511.998C325.466 511.998 334.167 511.702 361.473 510.498C388.677 509.299 407.38 504.899 423.583 498.597C457.992 485.294 485.196 458.089 498.5 423.684C504.798 407.38 509.201 388.775 510.4 361.571C511.6 334.265 511.901 325.564 511.901 256.05C511.901 186.536 511.799 177.836 510.6 150.529ZM464.493 359.57C463.391 384.575 459.191 398.078 455.691 407.08C447.087 429.385 429.385 447.087 407.08 455.691C398.078 459.191 384.477 463.391 359.57 464.489C332.565 465.693 324.466 465.989 256.152 465.989C187.837 465.989 179.637 465.693 152.729 464.489C127.724 463.391 114.222 459.191 105.22 455.691C94.1199 451.588 84.0164 445.087 75.8156 436.585C67.3139 428.283 60.8127 418.281 56.7103 407.181C53.2096 398.179 49.0096 384.575 47.9117 359.672C46.7083 332.667 46.4114 324.563 46.4114 256.249C46.4114 187.935 46.7083 179.734 47.9117 152.831C49.0096 127.826 53.2096 114.323 56.7103 105.321C60.8127 94.2176 67.3139 84.118 75.9172 75.9133C84.2157 67.4116 94.2176 60.9103 105.321 56.8119C114.323 53.3112 127.927 49.1112 152.831 48.0094C179.836 46.8099 187.939 46.5091 256.249 46.5091C324.665 46.5091 332.764 46.8099 359.672 48.0094C384.677 49.1112 398.179 53.3112 407.181 56.8119C418.281 60.9103 428.384 67.4116 436.585 75.9133C445.087 84.2157 451.588 94.2176 455.691 105.321C459.191 114.323 463.391 127.923 464.493 152.831C465.693 179.836 465.993 187.935 465.993 256.249C465.993 324.563 465.693 332.565 464.493 359.57Z" fill="white"/>
<path d="M256.05 124.523C183.438 124.523 124.524 183.433 124.524 256.049C124.524 328.665 183.438 387.575 256.05 387.575C328.666 387.575 387.576 328.665 387.576 256.049C387.576 183.433 328.666 124.523 256.05 124.523ZM256.05 341.367C208.943 341.367 170.733 303.16 170.733 256.049C170.733 208.938 208.943 170.732 256.05 170.732C303.161 170.732 341.368 208.938 341.368 256.049C341.368 303.16 303.161 341.367 256.05 341.367Z" fill="white"/>
<path d="M423.485 119.324C423.485 136.281 409.736 150.03 392.776 150.03C375.82 150.03 362.071 136.281 362.071 119.324C362.071 102.364 375.82 88.6191 392.776 88.6191C409.736 88.6191 423.485 102.364 423.485 119.324Z" fill="white"/>
</g>
<defs>
<clipPath id="clip0_107:15">
<rect width="511.901" height="511.998" fill="white"/>
</clipPath>
</defs>
</svg>
