<svg width="512" height="434" viewBox="0 0 512 434" fill="none" xmlns="http://www.w3.org/2000/svg">
<path d="M504.094 11.8594C497.84 4.21094 488.472 0 477.715 0C471.867 0 465.672 1.23047 459.305 3.66406L25.9061 169.105C2.90608 177.883 -0.191579 191.055 0.00763951 198.125C0.206858 205.195 4.0467 218.172 27.5076 225.637C27.6483 225.68 27.7889 225.723 27.9295 225.762L117.828 251.488L166.445 390.512C173.074 409.465 187.953 421.238 205.281 421.238C216.207 421.238 226.953 416.66 236.359 408.004L291.965 356.805L372.617 421.746C372.625 421.754 372.637 421.758 372.644 421.766L373.41 422.383C373.48 422.438 373.555 422.496 373.625 422.551C382.59 429.504 392.375 433.176 401.933 433.18H401.937C420.613 433.18 435.484 419.355 439.816 397.965L510.828 47.3242C513.68 33.25 511.289 20.6562 504.094 11.8594ZM147.902 246.602L321.344 157.996L213.347 272.75C211.578 274.629 210.324 276.93 209.707 279.434L188.883 363.785L147.902 246.602ZM216.035 385.934C215.316 386.594 214.594 387.184 213.871 387.727L233.191 309.477L268.336 337.777L216.035 385.934ZM481.426 41.3672L410.414 392.012C409.73 395.367 407.547 403.176 401.933 403.176C399.16 403.176 395.676 401.664 392.109 398.918L300.719 325.332C300.707 325.32 300.691 325.309 300.676 325.301L246.297 281.512L402.472 115.562C407.472 110.25 407.926 102.113 403.547 96.2773C399.164 90.4414 391.222 88.6055 384.726 91.9258L127.859 223.152L36.7381 197.082L470.004 31.6914C473.664 30.293 476.219 30 477.715 30C478.633 30 480.265 30.1094 480.871 30.8555C481.668 31.8281 482.683 35.1445 481.426 41.3672Z" fill="white"/>
</svg>
