<svg width="512" height="376" viewBox="0 0 512 376" fill="none" xmlns="http://www.w3.org/2000/svg">
<path d="M452 0H60C26.916 0 0 26.916 0 60V316C0 349.084 26.916 376 60 376H452C485.084 376 512 349.084 512 316V60C512 26.916 485.084 0 452 0ZM472 316C472 327.028 463.028 336 452 336H60C48.972 336 40 327.028 40 316V60C40 48.972 48.972 40 60 40H452C463.028 40 472 48.972 472 60V316Z" fill="white"/>
<path d="M468.604 24.9375L256 183.075L43.396 24.9375L19.522 57.0325L256 232.926L492.478 57.0325L468.604 24.9375Z" fill="white"/>
</svg>
