<svg width="513" height="320" viewBox="0 0 513 320" fill="none" xmlns="http://www.w3.org/2000/svg">
<path d="M259.093 320C333.163 320 306.752 273.109 312.469 259.627C312.384 249.557 312.299 239.872 312.64 233.984C317.333 235.307 328.405 240.917 351.275 263.147C386.581 298.773 395.605 320 424.128 320H476.629C493.269 320 501.931 313.109 506.261 307.328C510.443 301.739 514.539 291.925 510.059 276.651C498.347 239.872 430.037 176.363 425.792 169.664C426.432 168.427 427.456 166.784 427.989 165.931H427.947C441.429 148.117 492.885 71.0187 500.459 40.1707C500.48 40.128 500.501 40.064 500.501 40C504.597 25.92 500.843 16.7893 496.96 11.6267C491.115 3.904 481.813 0 469.248 0H416.747C399.168 0 385.835 8.85333 379.093 25.0027C367.808 53.696 336.107 112.704 312.341 133.589C311.616 104 312.107 81.408 312.491 64.6187C313.259 31.872 315.733 0 281.749 0H199.232C177.941 0 157.568 23.2533 179.627 50.8587C198.912 75.0507 186.56 88.5333 190.72 155.648C174.507 138.261 145.664 91.3067 125.269 31.296C119.552 15.0613 110.891 0.0213318 86.5067 0.0213318H34.0053C12.7147 0.0213318 0 11.6267 0 31.0613C0 74.7093 96.6187 320 259.093 320ZM86.5067 32.0213C91.136 32.0213 91.6053 32.0213 95.04 41.7707C115.925 103.275 162.773 194.283 196.992 194.283C222.699 194.283 222.699 167.936 222.699 158.016L222.677 79.04C221.269 52.9067 211.755 39.8933 205.504 32L280.341 32.0853C280.384 32.448 279.915 119.445 280.555 140.523C280.555 170.453 304.32 187.605 341.419 150.059C380.565 105.877 407.637 39.8293 408.725 37.1413C410.325 33.3013 411.712 32 416.747 32H469.248H469.461C469.44 32.064 469.44 32.128 469.419 32.192C464.619 54.592 417.237 125.973 401.387 148.139C401.131 148.48 400.896 148.843 400.661 149.205C393.685 160.597 388.011 173.184 401.621 190.891H401.643C402.88 192.384 406.101 195.883 410.795 200.747C425.387 215.808 475.435 267.307 479.872 287.787C476.928 288.256 473.728 287.915 424.128 288.021C413.568 288.021 405.312 272.235 373.803 240.448C345.472 212.885 327.083 201.621 310.336 201.621C277.824 201.621 280.192 228.011 280.491 259.925C280.597 294.528 280.384 283.584 280.619 285.76C278.72 286.507 273.28 288 259.093 288C123.733 288 35.584 73.152 32.192 32.0853C33.3653 31.9787 49.5147 32.0427 86.5067 32.0213Z" fill="white"/>
</svg>
